# xmcd CD database file
#
# Track frame offsets:
#	150
#	27332
#	55260
#	67402
#	81047
#	95925
#	106817
#	119040
#	131492
#	144125
#	163525
#	173560
#	190857
#	201907
#	216955
#	228617
#
# Disc length: 3212 seconds
#
# Revision: 0
# Processed by: cddbd v1.4PL0 Copyright (c) Steve Scherf et al.
# Submitted via: CDex 1.50Beta5
#
DISCID=ec0c8a10
DTITLE=Stan Getz - Stan Getz
DYEAR=1997
DGENRE=Jazz
TTITLE0=Lady Bird(T.Cameron)
TTITLE1=Dear Old Stockholm(Tradicional)
TTITLE2=S'Cool Boys(Tradicional)
TTITLE3=Night and Day(C.Porter)
TTITLE4=Pennies from Heaven(Johnston-Burke)
TTITLE5=Skull Buster(A.Haig)
TTITLE6=Ante Room(J.Roney)
TTITLE7=Poop Deck(A.haig)
TTITLE8=Prelude to a Kiss(Gorodon-Revel)
TTITLE9=Sweet Miss(Kai Winding)
TTITLE10=Long Island Sound(S.Getz)
TTITLE11=Always(I.Berlin)
TTITLE12=I'M Getting Sentimental Over You(Bassman-Washington)
TTITLE13=I Only Have Eyes For You(Dubin-Warren)
TTITLE14=Don't Worry 'bout Me(Bloom-Koehler)
TTITLE15=Running Water(S.Getz)
EXTD=YEAR: 1997
EXTT0=
EXTT1=
EXTT2=
EXTT3=
EXTT4=
EXTT5=
EXTT6=
EXTT7=
EXTT8=
EXTT9=
EXTT10=
EXTT11=
EXTT12=
EXTT13=
EXTT14=
EXTT15=
PLAYORDER=
